<svg xmlns="http://www.w3.org/2000/svg" viewBox="0 0 196.41 163.01"><defs><style>.cls-1{fill:#684f5b;}.cls-2{fill:#44353d;}.cls-3{fill:#826877;}.cls-4{fill:#ffdce9;}.cls-5{fill:#ffccdc;}.cls-6{fill:#b2909c;}.cls-7{fill:#f26ac0;}.cls-8{fill:#b25096;}.cls-9{fill:#ef9edc;}</style></defs><title>자산 1</title><g id="레이어_2" data-name="레이어 2"><g id="레이어_1-2" data-name="레이어 1"><polygon class="cls-1" points="0 92.13 24.55 77.96 122.75 134.66 98.2 148.83 0 92.13"/><polygon class="cls-2" points="0 92.13 0 106.31 98.2 163.01 98.2 148.83 0 92.13"/><polygon class="cls-3" points="122.75 134.66 122.76 148.83 98.2 163.01 98.2 148.83 122.75 134.66"/><polygon class="cls-1" points="36.83 70.87 61.38 56.7 159.58 113.4 135.03 127.57 36.83 70.87"/><polygon class="cls-2" points="36.83 70.87 36.83 85.05 135.03 141.75 135.03 127.57 36.83 70.87"/><polygon class="cls-3" points="159.58 113.4 159.58 127.57 135.03 141.75 135.03 127.57 159.58 113.4"/><polygon class="cls-1" points="73.65 49.61 98.2 35.44 196.41 92.13 171.86 106.31 73.65 49.61"/><polygon class="cls-2" points="73.65 49.61 73.65 63.78 171.86 120.48 171.86 106.31 73.65 49.61"/><polygon class="cls-3" points="196.41 92.13 196.41 106.31 171.86 120.48 171.86 106.31 196.41 92.13"/><polygon class="cls-4" points="24.55 77.96 24.55 92.13 122.75 35.44 122.75 21.26 24.55 77.96"/><polygon class="cls-5" points="0 63.78 24.55 77.96 122.75 21.26 98.2 7.09 0 63.78"/><polygon class="cls-6" points="0 63.78 0 77.96 24.55 92.13 24.55 77.96 0 63.78"/><polygon class="cls-7" points="147.31 21.26 36.83 0 73.66 63.79 147.31 21.26"/><polygon class="cls-8" points="36.83 0 36.83 14.18 73.66 77.96 73.66 63.79 36.83 0"/><polyline class="cls-9" points="73.66 63.79 147.31 21.26 147.31 35.44 73.66 77.96"/><circle class="cls-5" cx="98.2" cy="106.31" r="14.17"/><circle class="cls-8" cx="171.86" cy="63.79" r="14.17"/></g></g></svg>