<svg xmlns="http://www.w3.org/2000/svg" viewBox="0 0 212.55 201.33"><defs><style>.a{fill:#b25096;}.b{fill:#f26ac0;}.c{fill:#ffccdc;}</style></defs><title>templater</title><path class="a" d="M65.87.48C46.21,5.75,33.48,23.15,28.2,42c-2.62,9.38-2.95,19.61-4.54,28.7-.7,4-3.43,6.21-6.46,9.08a142.93,142.93,0,0,1-11,9.55c-5.35,4.1-8.2,10.75-4.49,17.1a13.25,13.25,0,0,0,12.83,6.12,15.4,15.4,0,0,1,.54,1.56c1.3,5.23,2.37,10.54,3.45,15.82,2.37,11.49,4.39,23,6.2,34.62,1.57,10,4.74,19.76,12.58,26.7s18.06,10.85,28.41,9.82c6.72-.67,12.5-5.27,12.5-12.5,0-6.24-5.74-13.17-12.5-12.5-6.44.64-12.11-1.33-14.68-7.76-1.85-4.61-2.15-10.2-2.93-15.1q-1.47-9.19-3.2-18.37c-2-10.83-3.43-22.68-7.54-32.95A25.61,25.61,0,0,0,35,97.48,70,70,0,0,0,42,89.88c6.73-8.72,6.33-18.95,7.85-29.32,1.25-8.53,3.27-17.15,7.91-24.5,3.52-5.57,8.74-9.85,14.79-11.47C88.05,20.43,81.46-3.69,65.87.48ZM14,110.37c-.4.16.09-1.74.08,0Z"/><path class="b" d="M210.87,94.87A13.26,13.26,0,0,0,198,88.74c-.2-.54-.42-1.08-.54-1.55-1.3-5.24-2.37-10.54-3.45-15.82-2.36-11.49-4.39-23-6.2-34.62-1.57-10-4.73-19.77-12.58-26.7S157.21-.8,146.86.23c-6.72.67-12.5,5.27-12.5,12.5,0,6.24,5.74,13.17,12.5,12.5,6.44-.64,12.11,1.33,14.69,7.75,1.84,4.61,2.14,10.21,2.93,15.1q1.47,9.21,3.19,18.38c2,10.83,3.44,22.68,7.54,33a25.52,25.52,0,0,0,2.3,4.43,72.11,72.11,0,0,0-6.93,7.61c-6.73,8.71-6.33,19-7.85,29.32-1.25,8.52-3.27,17.15-7.91,24.5-3.51,5.56-8.74,9.85-14.79,11.47-15.52,4.15-8.94,28.28,6.65,24.1,19.67-5.26,32.39-22.67,37.67-41.55,2.63-9.37,3-19.61,4.54-28.7.7-4,3.43-6.2,6.47-9.07a141.08,141.08,0,0,1,11-9.55C211.73,107.87,214.58,101.22,210.87,94.87ZM198.51,91l.08,0C199,90.8,198.5,92.7,198.51,91Z"/><path class="c" d="M149.15,57.25a193.27,193.27,0,0,0-79.68,1.17C62.88,59.91,59,67.5,60.74,73.8,62.6,80.57,69.51,84,76.11,82.53c4.79-1.09,9.63-1.94,14.49-2.59l-1.26,63.8c-.32,16.1,24.68,16.1,25,0l1.29-65.21a159.71,159.71,0,0,1,26.87,2.83c6.62,1.28,13.49-1.86,15.38-8.73C159.56,66.51,155.81,58.54,149.15,57.25Z"/></svg>