<svg xmlns="http://www.w3.org/2000/svg" xmlns:xlink="http://www.w3.org/1999/xlink" viewBox="0 0 200 225"><defs><style>.a{fill:#ffccdc;}.b{fill:#f26ac0;}.c{fill:url(#a);}</style><linearGradient id="a" x1="50" y1="125" x2="200" y2="125" gradientUnits="userSpaceOnUse"><stop offset="0" stop-color="#b25096"/><stop offset="1" stop-color="#f26ac0"/></linearGradient></defs><title>dalkak_logo</title><path class="a" d="M150,100a50,50,0,0,0,50-50.85C199.54,21.73,176.6,0,149.18,0H75A25,25,0,0,0,50,25V50L0,0V100l50,50V125a25,25,0,0,1,25-25Z"/><polygon class="b" points="0 100 0 175 50 225 50 200 50 150 0 100"/><path class="c" d="M200,50a50,50,0,0,1-50,50v0l-.82,0H75a25,25,0,0,0-25,25v75a25,25,0,0,1,25-25h75a50,50,0,0,0,50-50h0V50Z"/></svg>